<svg version="1.1" xmlns="http://www.w3.org/2000/svg" viewBox="0 0 771 347.69673677634705" width="771" height="347.69673677634705">
  <!-- svg-source:excalidraw -->
  
  <defs>
    <style class="style-fonts">
      @font-face {
        font-family: "Virgil";
        src: url("https://excalidraw.com/Virgil.woff2");
      }
      @font-face {
        font-family: "Cascadia";
        src: url("https://excalidraw.com/Cascadia.woff2");
      }
      @font-face {
        font-family: "Assistant";
        src: url("https://excalidraw.com/Assistant-Regular.woff2");
      }
    </style>
    
  </defs>
  <rect x="0" y="0" width="771" height="347.69673677634705" fill="#ffffff"></rect><g stroke-linecap="round"><g transform="translate(716 62.021852660495824) rotate(0 2.829246350214021 127.80178859016057)"><path d="M-0.37 0.58 C0.43 43.29, 2.74 213.15, 3.7 255.77 M1.64 -0.17 C2.92 42.25, 5.44 211.52, 6.03 253.98" stroke="#e03131" stroke-width="4" fill="none"></path></g></g><mask></mask><g transform="translate(696 19.021852660495767) rotate(0 32.5 20.700000000000003)"><text x="0" y="33.120703125" font-family="Helvetica, Segoe UI Emoji" font-size="36px" fill="#1e1e1e" text-anchor="start" style="white-space: pre;" direction="ltr" dominant-baseline="alphabetic">T2</text></g><g stroke-linecap="round"><g transform="translate(373 62.02185266049577) rotate(0 2.2524069594126104 137.37939667196142)"><path d="M-0.27 -0.92 C0.19 45.11, 1.99 229.78, 2.38 275.67 M1.8 1.22 C2.69 46.93, 4.32 228.14, 4.77 273.83" stroke="#1971c2" stroke-width="4" fill="none"></path></g></g><mask></mask><g stroke-linecap="round"><g transform="translate(30 61.233986513503) rotate(0 -1.8469163120324765 133.96217387495022)"><path d="M-0.16 -0.17 C-0.75 44.43, -3.07 223.39, -3.54 268.29 M-1.7 -1.31 C-1.92 43.34, -0.9 223.94, -1.26 269.24" stroke="#f08c00" stroke-width="4" fill="none"></path></g></g><mask></mask><g transform="translate(10 18.23398651350294) rotate(0 32.5 20.700000000000003)"><text x="0" y="33.120703125" font-family="Helvetica, Segoe UI Emoji" font-size="36px" fill="#1e1e1e" text-anchor="start" style="white-space: pre;" direction="ltr" dominant-baseline="alphabetic">T1</text></g><g transform="translate(292.5 10) rotate(0 90 20.700000000000003)"><text x="0" y="33.120703125" font-family="Helvetica, Segoe UI Emoji" font-size="36px" fill="#1e1e1e" text-anchor="start" style="white-space: pre;" direction="ltr" dominant-baseline="alphabetic">Database</text></g><g stroke-linecap="round"><g transform="translate(51.109529024726385 96.85353778863941) rotate(0 149.93019993392284 -2.0336606187779154)"><path d="M0.29 0.54 C50.33 0.27, 251.12 -2.21, 300.87 -2.61 M-1.01 -0.22 C48.89 -0.79, 250.03 -4.03, 300.39 -4.61" stroke="#1e1e1e" stroke-width="2" fill="none"></path></g><g transform="translate(51.109529024726385 96.85353778863941) rotate(0 149.93019993392284 -2.0336606187779154)"><path d="M277.02 4.27 C286.24 2.54, 294.01 -3.99, 300.39 -4.61 M277.02 4.27 C284.94 1.96, 295.56 -1.5, 300.39 -4.61" stroke="#1e1e1e" stroke-width="2" fill="none"></path></g><g transform="translate(51.109529024726385 96.85353778863941) rotate(0 149.93019993392284 -2.0336606187779154)"><path d="M276.77 -12.83 C285.95 -8.52, 293.8 -9.01, 300.39 -4.61 M276.77 -12.83 C284.82 -8.61, 295.52 -5.55, 300.39 -4.61" stroke="#1e1e1e" stroke-width="2" fill="none"></path></g></g><mask></mask><g transform="translate(48.96428571428578 239.3598574227234) rotate(0 156.42857142857133 12.5)"><text x="0" y="17.52" font-family="Virgil, Segoe UI Emoji" font-size="20px" fill="#1e1e1e" text-anchor="start" style="white-space: pre;" direction="ltr" dominant-baseline="alphabetic">Atualiza salário do funcionário</text></g><g stroke-linecap="round"><g transform="translate(686.6523945745921 131.62144960449575) rotate(0 -147.8533558618809 1.310056116016142)"><path d="M1.19 0.01 C-48.43 0.63, -247.51 3.05, -296.9 3.65 M0.36 -1.03 C-49 -0.74, -245.47 1.5, -294.81 1.95" stroke="#1e1e1e" stroke-width="2" fill="none"></path></g><g transform="translate(686.6523945745921 131.62144960449575) rotate(0 -147.8533558618809 1.310056116016142)"><path d="M-271.41 -6.84 C-280.12 -5.31, -287.54 0.83, -294.81 1.95 M-271.41 -6.84 C-280.59 -3.69, -288.48 -0.45, -294.81 1.95" stroke="#1e1e1e" stroke-width="2" fill="none"></path></g><g transform="translate(686.6523945745921 131.62144960449575) rotate(0 -147.8533558618809 1.310056116016142)"><path d="M-271.23 10.26 C-280 5.42, -287.48 5.18, -294.81 1.95 M-271.23 10.26 C-280.51 7.21, -288.46 4.26, -294.81 1.95" stroke="#1e1e1e" stroke-width="2" fill="none"></path></g></g><mask></mask><g transform="translate(412.2084518257741 88.94492765215182) rotate(0 140.71428571428567 12.5)"><text x="0" y="17.52" font-family="Virgil, Segoe UI Emoji" font-size="20px" fill="#1e1e1e" text-anchor="start" style="white-space: pre;" direction="ltr" dominant-baseline="alphabetic">Seleciona funcionário</text></g><g stroke-linecap="round"><g transform="translate(57.569800066077164 289.38202900695137) rotate(0 149.41373805549927 -1.8049742764127927)"><path d="M0.28 0.11 C50.1 -0.33, 249.94 -3.06, 299.87 -3.72 M-1.04 -0.88 C48.54 -1.09, 248.84 -2.28, 298.85 -2.64" stroke="#1e1e1e" stroke-width="2" fill="none"></path></g><g transform="translate(57.569800066077164 289.38202900695137) rotate(0 149.41373805549927 -1.8049742764127927)"><path d="M275.41 6.07 C284.45 2.53, 291.61 -0.76, 298.85 -2.64 M275.41 6.07 C280.66 4.56, 284.77 2.42, 298.85 -2.64" stroke="#1e1e1e" stroke-width="2" fill="none"></path></g><g transform="translate(57.569800066077164 289.38202900695137) rotate(0 149.41373805549927 -1.8049742764127927)"><path d="M275.3 -11.04 C284.23 -8.17, 291.43 -5.04, 298.85 -2.64 M275.3 -11.04 C280.74 -8.8, 284.88 -7.19, 298.85 -2.64" stroke="#1e1e1e" stroke-width="2" fill="none"></path></g></g><mask></mask><g stroke-linecap="round"><g transform="translate(694.3533558618808 216.03831227215738) rotate(0 -147.66766131535837 1.3035796849322878)"><path d="M-0.59 -1.06 C-50.02 -0.52, -247.65 2.91, -296.64 3.67 M1.31 1 C-47.75 1.17, -245.08 1.89, -294.41 1.97" stroke="#1e1e1e" stroke-width="2" fill="none"></path></g><g transform="translate(694.3533558618808 216.03831227215738) rotate(0 -147.66766131535837 1.3035796849322878)"><path d="M-270.95 -6.64 C-279.65 -5.75, -283.49 0.31, -294.41 1.97 M-270.95 -6.64 C-278.34 -3.33, -288.38 -0.1, -294.41 1.97" stroke="#1e1e1e" stroke-width="2" fill="none"></path></g><g transform="translate(694.3533558618808 216.03831227215738) rotate(0 -147.66766131535837 1.3035796849322878)"><path d="M-270.9 10.46 C-279.68 6.28, -283.53 7.26, -294.41 1.97 M-270.9 10.46 C-278.46 7.7, -288.51 4.87, -294.41 1.97" stroke="#1e1e1e" stroke-width="2" fill="none"></path></g></g><mask></mask><g transform="translate(51.78571428571445 58.848368388173526) rotate(0 140.71428571428567 12.5)"><text x="0" y="17.52" font-family="Virgil, Segoe UI Emoji" font-size="20px" fill="#1e1e1e" text-anchor="start" style="white-space: pre;" direction="ltr" dominant-baseline="alphabetic">Seleciona funcionário</text></g><g transform="translate(397.07142857142867 165.84836838817353) rotate(0 156.42857142857133 12.5)"><text x="0" y="17.52" font-family="Virgil, Segoe UI Emoji" font-size="20px" fill="#1e1e1e" text-anchor="start" style="white-space: pre;" direction="ltr" dominant-baseline="alphabetic">Atualiza salário do funcionário</text></g></svg>