<svg version="1.1" xmlns="http://www.w3.org/2000/svg" viewBox="0 0 771 347.69673677634705" width="771" height="347.69673677634705">
  <!-- svg-source:excalidraw -->
  
  <defs>
    <style class="style-fonts">
      @font-face {
        font-family: "Virgil";
        src: url("https://excalidraw.com/Virgil.woff2");
      }
      @font-face {
        font-family: "Cascadia";
        src: url("https://excalidraw.com/Cascadia.woff2");
      }
      @font-face {
        font-family: "Assistant";
        src: url("https://excalidraw.com/Assistant-Regular.woff2");
      }
    </style>
    
  </defs>
  <rect x="0" y="0" width="771" height="347.69673677634705" fill="#ffffff"></rect><g stroke-linecap="round"><g transform="translate(716 62.021852660495824) rotate(0 2.2142857142856656 127.57142857142856)"><path d="M-0.37 0.58 C0.43 43.29, 2.74 213.15, 3.7 255.77 M1.64 -0.17 C2.92 42.25, 5.44 211.52, 6.03 253.98" stroke="#e03131" stroke-width="4" fill="none"></path></g></g><mask></mask><g transform="translate(696 19.021852660495767) rotate(0 32.5 20.700000000000003)"><text x="0" y="33.120703125" font-family="Helvetica, Segoe UI Emoji" font-size="36px" fill="#1e1e1e" text-anchor="start" style="white-space: pre;" direction="ltr" dominant-baseline="alphabetic">T2</text></g><g stroke-linecap="round"><g transform="translate(373 62.02185266049577) rotate(0 1.5 137.57142857142853)"><path d="M-0.27 -0.92 C0.19 45.11, 1.99 229.78, 2.38 275.67 M1.8 1.22 C2.69 46.93, 4.32 228.14, 4.77 273.83" stroke="#1971c2" stroke-width="4" fill="none"></path></g></g><mask></mask><g stroke-linecap="round"><g transform="translate(30 61.233986513503) rotate(0 -1.3571428571428328 134.71428571428564)"><path d="M-0.16 -0.17 C-0.75 44.43, -3.07 223.39, -3.54 268.29 M-1.7 -1.31 C-1.92 43.34, -0.9 223.94, -1.26 269.24" stroke="#f08c00" stroke-width="4" fill="none"></path></g></g><mask></mask><g transform="translate(10 18.23398651350294) rotate(0 32.5 20.700000000000003)"><text x="0" y="33.120703125" font-family="Helvetica, Segoe UI Emoji" font-size="36px" fill="#1e1e1e" text-anchor="start" style="white-space: pre;" direction="ltr" dominant-baseline="alphabetic">T1</text></g><g transform="translate(292.5 10) rotate(0 90 20.700000000000003)"><text x="0" y="33.120703125" font-family="Helvetica, Segoe UI Emoji" font-size="36px" fill="#1e1e1e" text-anchor="start" style="white-space: pre;" direction="ltr" dominant-baseline="alphabetic">Database</text></g><g stroke-linecap="round"><g transform="translate(51.109529024726385 96.85353778863941) rotate(0 150 -1.4285714285714164)"><path d="M0.29 0.54 C50.33 0.27, 251.12 -2.21, 300.87 -2.61 M-1.01 -0.22 C48.89 -0.79, 250.03 -4.03, 300.39 -4.61" stroke="#1e1e1e" stroke-width="2" fill="none"></path></g><g transform="translate(51.109529024726385 96.85353778863941) rotate(0 150 -1.4285714285714164)"><path d="M277.02 4.27 C286.24 2.54, 294.01 -3.99, 300.39 -4.61 M277.02 4.27 C284.94 1.96, 295.56 -1.5, 300.39 -4.61" stroke="#1e1e1e" stroke-width="2" fill="none"></path></g><g transform="translate(51.109529024726385 96.85353778863941) rotate(0 150 -1.4285714285714164)"><path d="M276.77 -12.83 C285.95 -8.52, 293.8 -9.01, 300.39 -4.61 M276.77 -12.83 C284.82 -8.61, 295.52 -5.55, 300.39 -4.61" stroke="#1e1e1e" stroke-width="2" fill="none"></path></g></g><mask></mask><g stroke-linecap="round"><g transform="translate(679.3533558618808 141.03831227215738) rotate(0 -147.8571428571429 1.428571428571388)"><path d="M-0.59 -1.06 C-50.02 -0.52, -247.65 2.91, -296.64 3.67 M1.31 1 C-47.75 1.17, -245.08 1.89, -294.41 1.97" stroke="#1e1e1e" stroke-width="2" fill="none"></path></g><g transform="translate(679.3533558618808 141.03831227215738) rotate(0 -147.8571428571429 1.428571428571388)"><path d="M-270.95 -6.64 C-279.65 -5.75, -283.49 0.31, -294.41 1.97 M-270.95 -6.64 C-278.34 -3.33, -288.38 -0.1, -294.41 1.97" stroke="#1e1e1e" stroke-width="2" fill="none"></path></g><g transform="translate(679.3533558618808 141.03831227215738) rotate(0 -147.8571428571429 1.428571428571388)"><path d="M-270.9 10.46 C-279.68 6.28, -283.53 7.26, -294.41 1.97 M-270.9 10.46 C-278.46 7.7, -288.51 4.87, -294.41 1.97" stroke="#1e1e1e" stroke-width="2" fill="none"></path></g></g><mask></mask><g transform="translate(51.78571428571445 58.848368388173526) rotate(0 140.71428571428567 12.5)"><text x="0" y="17.52" font-family="Virgil, Segoe UI Emoji" font-size="20px" fill="#1e1e1e" text-anchor="start" style="white-space: pre;" direction="ltr" dominant-baseline="alphabetic">Seleciona funcion치rio 1</text></g><g transform="translate(397.07142857142867 105.84836838817353) rotate(0 156.42857142857133 12.5)"><text x="0" y="17.52" font-family="Virgil, Segoe UI Emoji" font-size="20px" fill="#1e1e1e" text-anchor="start" style="white-space: pre;" direction="ltr" dominant-baseline="alphabetic">Atualiza funcion치rio 1</text></g><g stroke-linecap="round"><g transform="translate(56.569800066077164 298.0809931308813) rotate(0 150 -1.4285714285714164)"><path d="M-0.17 0.12 C49.75 -0.19, 249.83 -1.73, 299.84 -2.33 M-1.71 -0.87 C48.01 -1.48, 248.68 -3.91, 298.81 -4.17" stroke="#1e1e1e" stroke-width="2" fill="none"></path></g><g transform="translate(56.569800066077164 298.0809931308813) rotate(0 150 -1.4285714285714164)"><path d="M275.4 4.59 C283.3 1.5, 291.65 -1.26, 298.81 -4.17 M275.4 4.59 C280.28 1.89, 286.47 -0.46, 298.81 -4.17" stroke="#1e1e1e" stroke-width="2" fill="none"></path></g><g transform="translate(56.569800066077164 298.0809931308813) rotate(0 150 -1.4285714285714164)"><path d="M275.24 -12.51 C283.12 -10.01, 291.52 -7.16, 298.81 -4.17 M275.24 -12.51 C280.17 -10.94, 286.39 -9.02, 298.81 -4.17" stroke="#1e1e1e" stroke-width="2" fill="none"></path></g></g><mask></mask><g transform="translate(57.24598532706534 260.07582373041544) rotate(0 140.71428571428567 12.5)"><text x="0" y="17.52" font-family="Virgil, Segoe UI Emoji" font-size="20px" fill="#1e1e1e" text-anchor="start" style="white-space: pre;" direction="ltr" dominant-baseline="alphabetic">Seleciona funcion치rio 2</text></g><g stroke-linecap="round"><g transform="translate(683.5325873024494 230.1088981594295) rotate(0 -147.8571428571429 1.428571428571388)"><path d="M0.53 0.91 C-48.89 1.04, -246.55 1.62, -295.98 1.87 M-0.65 0.34 C-50.3 1.1, -247.68 2.37, -297.07 2.89" stroke="#1e1e1e" stroke-width="2" fill="none"></path></g><g transform="translate(683.5325873024494 230.1088981594295) rotate(0 -147.8571428571429 1.428571428571388)"><path d="M-273.65 -5.86 C-280.15 -3.17, -291.41 -0.21, -297.07 2.89 M-273.65 -5.86 C-279.54 -3.29, -285.15 -1.04, -297.07 2.89" stroke="#1e1e1e" stroke-width="2" fill="none"></path></g><g transform="translate(683.5325873024494 230.1088981594295) rotate(0 -147.8571428571429 1.428571428571388)"><path d="M-273.5 11.24 C-280.22 8.02, -291.52 5.06, -297.07 2.89 M-273.5 11.24 C-279.27 9.32, -284.92 7.07, -297.07 2.89" stroke="#1e1e1e" stroke-width="2" fill="none"></path></g></g><mask></mask><g transform="translate(397.2506600119973 187.91895427544569) rotate(0 156.42857142857133 12.5)"><text x="0" y="17.52" font-family="Virgil, Segoe UI Emoji" font-size="20px" fill="#1e1e1e" text-anchor="start" style="white-space: pre;" direction="ltr" dominant-baseline="alphabetic">Atualiza funcion치rio 2</text></g></svg>